<svg width="216" height="64" viewBox="0 0 216 64" fill="none" xmlns="http://www.w3.org/2000/svg">
<path d="M13.8699 63.9967C13.3118 63.9967 12.7672 63.9901 12.2135 63.9788C11.0664 63.9651 9.92194 63.8739 8.7896 63.7059C7.73374 63.5398 6.7109 63.2308 5.75481 62.7892C4.80749 62.3512 3.94346 61.7769 3.19582 61.0883C2.43735 60.4078 1.80589 59.6185 1.32647 58.7518C0.841757 57.8794 0.506309 56.9443 0.331809 55.9791C0.143363 54.9419 0.0414063 53.8932 0.0268173 52.842C0.0152038 52.4891 0 51.3143 0 51.3143V12.6644C0 12.6644 0.016193 11.5076 0.0269089 11.1677C0.0408778 10.1181 0.142242 9.07105 0.330124 8.03552C0.504946 7.06766 0.840653 6.12987 1.32562 5.25464C1.80329 4.38849 2.43124 3.59864 3.18514 2.9157C3.93819 2.22628 4.80498 1.64903 5.75392 1.20499C6.70781 0.76477 7.72871 0.457986 8.78243 0.29492C9.9185 0.125209 11.0669 0.0334558 12.218 0.0204288L13.8708 0H202.12L203.793 0.0212486C204.933 0.0336283 206.071 0.124563 207.197 0.29328C208.261 0.458392 209.293 0.767317 210.258 1.2099C212.159 2.10476 213.706 3.52051 214.681 5.25872C215.159 6.12791 215.489 7.05805 215.662 8.01755C215.852 9.06158 215.958 10.1169 215.98 11.1751C215.986 11.6489 215.986 12.1579 215.986 12.6644C216 13.2918 216 13.889 216 14.4911V49.5071C216 50.115 216 50.7081 215.986 51.3061C215.986 51.8502 215.986 52.3486 215.978 52.8616C215.957 53.9009 215.852 54.9373 215.665 55.9627C215.494 56.9349 215.161 57.8773 214.676 58.7568C214.193 59.6141 213.566 60.3966 212.816 61.0752C212.068 61.7675 211.202 62.3452 210.252 62.786C209.29 63.231 208.26 63.5411 207.197 63.7059C206.065 63.8748 204.92 63.966 203.773 63.9788C203.237 63.9901 202.675 63.9967 202.129 63.9967L200.144 64L13.8699 63.9967Z" fill="black"/>
<path d="M52.6165 29.5286C52.6337 28.1931 52.9875 26.8837 53.6451 25.7222C54.3027 24.5607 55.2427 23.5848 56.3776 22.8853C55.6566 21.853 54.7055 21.0035 53.5998 20.4042C52.494 19.8049 51.2641 19.4724 50.0077 19.433C47.3276 19.151 44.7294 21.0407 43.3637 21.0407C41.9716 21.0407 39.8688 19.461 37.6045 19.5077C36.1399 19.5551 34.7126 19.9821 33.4615 20.747C32.2104 21.5119 31.1783 22.5886 30.4658 23.8723C27.3791 29.2298 29.6815 37.1034 32.6382 41.434C34.1176 43.5546 35.8465 45.9233 38.1087 45.8393C40.3225 45.7472 41.1493 44.4241 43.8215 44.4241C46.4689 44.4241 47.2446 45.8393 49.5527 45.7859C51.9282 45.7472 53.4248 43.6559 54.8523 41.5153C55.9152 40.0043 56.7331 38.3343 57.2757 36.5672C55.8956 35.9821 54.7179 35.0026 53.8893 33.7509C53.0608 32.4992 52.6182 31.0308 52.6165 29.5286Z" fill="white"/>
<path d="M48.2557 16.585C49.5509 15.0263 50.189 13.0228 50.0345 11C48.0557 11.2084 46.2279 12.1564 44.9152 13.6554C44.2734 14.3876 43.7818 15.2395 43.4686 16.1624C43.1554 17.0852 43.0267 18.0609 43.0898 19.0336C44.0796 19.0438 45.0587 18.8288 45.9536 18.4046C46.8484 17.9805 47.6355 17.3583 48.2557 16.585Z" fill="white"/>
<path d="M80.5998 35.8295H73.0453L71.231 41.1999H68.0312L75.1868 21.3311H78.5112L85.6668 41.1999H82.4124L80.5998 35.8295ZM73.8277 33.3514H79.8159L76.8639 24.6358H76.7813L73.8277 33.3514Z" fill="white"/>
<path d="M101.119 33.9576C101.119 38.4591 98.7157 41.3513 95.0889 41.3513C94.1701 41.3995 93.2564 41.1873 92.4524 40.7391C91.6483 40.2909 90.9864 39.6247 90.5425 38.8169H90.4738V45.9919H87.5078V26.7138H90.3788V29.1232H90.4333C90.8977 28.3192 91.5708 27.6565 92.381 27.2056C93.1911 26.7546 94.1081 26.5323 95.0343 26.5622C98.7016 26.5623 101.119 29.4685 101.119 33.9576ZM98.0705 33.9576C98.0705 31.0248 96.5586 29.0966 94.2519 29.0966C91.9857 29.0966 90.4614 31.0654 90.4614 33.9576C90.4614 36.8763 91.9857 38.831 94.2519 38.831C96.5586 38.831 98.0705 36.9169 98.0705 33.9576Z" fill="white"/>
<path d="M117.023 33.9576C117.023 38.4591 114.62 41.3513 110.993 41.3513C110.074 41.3995 109.161 41.1873 108.357 40.7391C107.553 40.2909 106.891 39.6247 106.447 38.8169H106.378V45.9919H103.412V26.7138H106.283V29.1232H106.338C106.802 28.3192 107.475 27.6565 108.285 27.2056C109.095 26.7546 110.012 26.5323 110.939 26.5622C114.606 26.5622 117.023 29.4685 117.023 33.9576ZM113.975 33.9576C113.975 31.0248 112.463 29.0966 110.156 29.0966C107.89 29.0966 106.366 31.0654 106.366 33.9576C106.366 36.8763 107.89 38.831 110.156 38.831C112.463 38.831 113.975 36.9169 113.975 33.9576H113.975Z" fill="white"/>
<path d="M127.536 35.6641C127.756 37.6345 129.665 38.9281 132.274 38.9281C134.774 38.9281 136.573 37.6344 136.573 35.8578C136.573 34.3156 135.488 33.3922 132.92 32.7594L130.351 32.1391C126.712 31.2578 125.022 29.5516 125.022 26.7828C125.022 23.3547 128.002 21 132.234 21C136.422 21 139.293 23.3547 139.389 26.7828H136.395C136.216 24.8 134.581 23.6031 132.192 23.6031C129.802 23.6031 128.167 24.8141 128.167 26.5766C128.167 27.9813 129.212 28.8078 131.766 29.4406L133.95 29.9781C138.016 30.9421 139.706 32.5797 139.706 35.4859C139.706 39.2031 136.752 41.5312 132.055 41.5312C127.659 41.5312 124.692 39.2578 124.5 35.664L127.536 35.6641Z" fill="white"/>
<path d="M146.106 23.2861V26.7143H148.854V29.0689H146.106V37.0549C146.106 38.2955 146.657 38.8736 147.864 38.8736C148.191 38.8679 148.516 38.845 148.84 38.8048V41.1455C148.297 41.2472 147.745 41.2933 147.193 41.283C144.267 41.283 143.126 40.1814 143.126 37.372V29.0689H141.025V26.7143H143.126V23.2861H146.106Z" fill="white"/>
<path d="M150.445 33.958C150.445 29.4002 153.123 26.5361 157.298 26.5361C161.488 26.5361 164.153 29.4001 164.153 33.958C164.153 38.5283 161.502 41.3799 157.298 41.3799C153.096 41.3799 150.445 38.5283 150.445 33.958ZM161.131 33.958C161.131 30.8314 159.702 28.9861 157.298 28.9861C154.895 28.9861 153.467 30.8455 153.467 33.958C153.467 37.0971 154.895 38.9283 157.298 38.9283C159.702 38.9283 161.131 37.0971 161.131 33.958H161.131Z" fill="white"/>
<path d="M166.598 26.7137H169.427V29.1793H169.495C169.687 28.4092 170.137 27.7287 170.769 27.2521C171.402 26.7755 172.18 26.5318 172.971 26.5621C173.313 26.5609 173.653 26.5981 173.987 26.673V29.4543C173.556 29.3221 173.105 29.2614 172.654 29.2746C172.223 29.2571 171.794 29.3332 171.395 29.4979C170.996 29.6625 170.638 29.9116 170.344 30.2283C170.051 30.5449 169.829 30.9215 169.694 31.3321C169.559 31.7428 169.515 32.1779 169.564 32.6074V41.1996H166.598L166.598 26.7137Z" fill="white"/>
<path d="M187.661 36.9455C187.262 39.5752 184.708 41.3799 181.44 41.3799C177.236 41.3799 174.627 38.5564 174.627 34.0268C174.627 29.483 177.25 26.5361 181.315 26.5361C185.313 26.5361 187.827 29.2892 187.827 33.6814V34.7002H177.621V34.8799C177.574 35.413 177.64 35.9501 177.816 36.4554C177.992 36.9608 178.273 37.4228 178.641 37.8109C179.009 38.199 179.454 38.5042 179.949 38.7063C180.443 38.9084 180.975 39.0027 181.508 38.983C182.209 39.0488 182.912 38.8861 183.514 38.519C184.115 38.1519 184.582 37.6 184.845 36.9455L187.661 36.9455ZM177.635 32.6221H184.859C184.886 32.1427 184.813 31.663 184.646 31.2131C184.479 30.7631 184.221 30.3527 183.888 30.0075C183.555 29.6622 183.155 29.3897 182.712 29.207C182.269 29.0242 181.794 28.9352 181.315 28.9455C180.832 28.9426 180.353 29.0357 179.906 29.2192C179.459 29.4028 179.053 29.6733 178.711 30.0151C178.369 30.357 178.098 30.7633 177.913 31.2108C177.728 31.6582 177.634 32.1379 177.635 32.6221V32.6221Z" fill="white"/>
</svg>
