<svg width="217" height="64" viewBox="0 0 217 64" fill="none" xmlns="http://www.w3.org/2000/svg">
<path d="M208.607 64H8.60742C4.20742 64 0.607422 60.4 0.607422 56V8C0.607422 3.6 4.20742 0 8.60742 0H208.607C213.007 0 216.607 3.6 216.607 8V56C216.607 60.4 213.007 64 208.607 64Z" fill="black"/>
<path d="M109.63 26.7993C105.87 26.7993 102.798 29.6633 102.798 33.5993C102.798 37.5193 105.87 40.3993 109.63 40.3993C113.39 40.3993 116.462 37.5193 116.462 33.5993C116.462 29.6633 113.39 26.7993 109.63 26.7993ZM109.63 37.7273C107.566 37.7273 105.79 36.0313 105.79 33.5993C105.79 31.1513 107.566 29.4713 109.63 29.4713C111.694 29.4713 113.47 31.1513 113.47 33.5993C113.47 36.0313 111.678 37.7273 109.63 37.7273ZM94.7175 26.7993C90.9575 26.7993 87.8855 29.6633 87.8855 33.5993C87.8855 37.5193 90.9575 40.3993 94.7175 40.3993C98.4775 40.3993 101.55 37.5193 101.55 33.5993C101.55 29.6633 98.4775 26.7993 94.7175 26.7993ZM94.7175 37.7273C92.6535 37.7273 90.8775 36.0313 90.8775 33.5993C90.8775 31.1513 92.6535 29.4713 94.7175 29.4713C96.7815 29.4713 98.5575 31.1513 98.5575 33.5993C98.5575 36.0313 96.7815 37.7273 94.7175 37.7273ZM76.9895 28.8953V31.7753H83.9015C83.6935 33.3913 83.1495 34.5913 82.3335 35.4073C81.3255 36.4153 79.7575 37.5193 77.0055 37.5193C72.7495 37.5193 69.4215 34.0953 69.4215 29.8393C69.4215 25.5833 72.7495 22.1593 77.0055 22.1593C79.2935 22.1593 80.9735 23.0553 82.2055 24.2233L84.2375 22.1913C82.5095 20.5433 80.2215 19.2793 76.9895 19.2793C71.1655 19.2793 66.2695 24.0153 66.2695 29.8553C66.2695 35.6793 71.1655 40.4313 76.9895 40.4313C80.1415 40.4313 82.5095 39.4073 84.3655 37.4713C86.2695 35.5673 86.8615 32.8793 86.8615 30.7193C86.8615 30.0473 86.8135 29.4233 86.7015 28.9113H76.9895V28.8953ZM149.486 31.1353C148.926 29.6153 147.198 26.7993 143.662 26.7993C140.158 26.7993 137.246 29.5513 137.246 33.5993C137.246 37.4073 140.126 40.3993 143.998 40.3993C147.118 40.3993 148.926 38.4953 149.662 37.3913L147.342 35.8393C146.574 36.9753 145.518 37.7273 143.998 37.7273C142.478 37.7273 141.39 37.0233 140.702 35.6633L149.806 31.9033L149.486 31.1353ZM140.206 33.4073C140.126 30.7833 142.238 29.4393 143.758 29.4393C144.942 29.4393 145.95 30.0313 146.286 30.8793L140.206 33.4073ZM132.814 39.9993H135.806V19.9993H132.814V39.9993ZM127.918 28.3193H127.806C127.134 27.5193 125.854 26.7993 124.222 26.7993C120.814 26.7993 117.694 29.7913 117.694 33.6313C117.694 37.4393 120.814 40.4153 124.222 40.4153C125.838 40.4153 127.134 39.6953 127.806 38.8633H127.902V39.8393C127.902 42.4473 126.51 43.8393 124.27 43.8393C122.446 43.8393 121.31 42.5273 120.846 41.4233L118.238 42.5113C118.99 44.3193 120.974 46.5273 124.27 46.5273C127.774 46.5273 130.734 44.4633 130.734 39.4393V27.2153H127.902V28.3193H127.918ZM124.478 37.7273C122.414 37.7273 120.686 35.9993 120.686 33.6313C120.686 31.2313 122.414 29.4873 124.478 29.4873C126.51 29.4873 128.11 31.2473 128.11 33.6313C128.126 35.9993 126.526 37.7273 124.478 37.7273ZM163.502 19.9993H156.35V39.9993H159.342V32.4153H163.518C166.83 32.4153 170.078 30.0153 170.078 26.2073C170.078 22.3993 166.798 19.9993 163.502 19.9993ZM163.566 29.6313H159.326V22.7673H163.566C165.806 22.7673 167.07 24.6233 167.07 26.1913C167.07 27.7593 165.806 29.6313 163.566 29.6313ZM182.03 26.7673C179.87 26.7673 177.63 27.7273 176.702 29.8233L179.358 30.9273C179.918 29.8233 180.974 29.4553 182.078 29.4553C183.614 29.4553 185.198 30.3833 185.214 32.0313V32.2393C184.67 31.9353 183.518 31.4713 182.094 31.4713C179.23 31.4713 176.334 33.0393 176.334 35.9673C176.334 38.6393 178.67 40.3673 181.294 40.3673C183.294 40.3673 184.414 39.4713 185.102 38.4153H185.198V39.9673H188.078V32.3033C188.094 28.7513 185.438 26.7673 182.03 26.7673ZM181.662 37.7273C180.686 37.7273 179.326 37.2313 179.326 36.0313C179.326 34.4953 181.022 33.9033 182.494 33.9033C183.806 33.9033 184.43 34.1913 185.214 34.5753C184.99 36.4153 183.39 37.7273 181.662 37.7273ZM198.59 27.1993L195.166 35.8713H195.07L191.518 27.1993H188.302L193.63 39.3273L190.59 46.0633H193.71L201.918 27.1993H198.59ZM171.71 39.9993H174.702V19.9993H171.71V39.9993Z" fill="white"/>
<path d="M17.3122 12.0642C16.8482 12.5602 16.5762 13.3282 16.5762 14.3042V49.6962C16.5762 50.6882 16.8482 51.4562 17.3122 51.9361L17.4242 52.0481L37.2482 32.2401V32.0002V31.7602L17.4242 11.9521L17.3122 12.0642Z" fill="url(#paint0_linear)"/>
<path d="M43.856 38.8483L37.248 32.2403V32.0003V31.7603L43.856 25.1523L44 25.2323L51.824 29.6803C54.064 30.9443 54.064 33.0243 51.824 34.3043L44 38.7523L43.856 38.8483Z" fill="url(#paint1_linear)"/>
<path d="M44.0025 38.751L37.2505 31.999L17.3145 51.935C18.0505 52.719 19.2665 52.815 20.6425 52.031L44.0025 38.751Z" fill="url(#paint2_linear)"/>
<path d="M44.0028 25.248L20.6268 11.968C19.2508 11.184 18.0348 11.28 17.2988 12.064L37.2508 32L44.0028 25.248Z" fill="url(#paint3_linear)"/>
<path opacity="0.2" d="M43.8584 38.6084L20.6265 51.8084C19.3305 52.5444 18.1625 52.4964 17.4265 51.8244L17.3145 51.9364L17.4265 52.0484C18.1785 52.7204 19.3305 52.7684 20.6265 52.0324L44.0025 38.7524L43.8584 38.6084Z" fill="black"/>
<path opacity="0.12" d="M17.3122 51.7127C16.8482 51.2167 16.5762 50.4487 16.5762 49.4727V49.7127C16.5762 50.7047 16.8482 51.4727 17.3122 51.9527L17.4242 51.8407L17.3122 51.7127Z" fill="black"/>
<path opacity="0.12" d="M51.8258 34.079L43.8418 38.607L43.9858 38.751L51.8098 34.303C52.9298 33.663 53.4898 32.831 53.4898 31.999C53.4098 32.751 52.8498 33.503 51.8258 34.079Z" fill="black"/>
<path opacity="0.25" d="M20.6245 12.1919L51.8245 29.9199C52.8325 30.4959 53.4086 31.2319 53.5046 31.9999C53.5046 31.1679 52.9445 30.3199 51.8245 29.6959L20.6245 11.9679C18.3845 10.7039 16.5605 11.7599 16.5605 14.3199V14.5599C16.5605 11.9839 18.4005 10.9279 20.6245 12.1919Z" fill="white"/>
<defs>
<linearGradient id="paint0_linear" x1="35.4877" y1="13.9357" x2="8.63586" y2="40.7875" gradientUnits="userSpaceOnUse">
<stop stop-color="#00A0FF"/>
<stop offset="0.00657445" stop-color="#00A1FF"/>
<stop offset="0.2601" stop-color="#00BEFF"/>
<stop offset="0.5122" stop-color="#00D2FF"/>
<stop offset="0.7604" stop-color="#00DFFF"/>
<stop offset="1" stop-color="#00E3FF"/>
</linearGradient>
<linearGradient id="paint1_linear" x1="54.7431" y1="32.0026" x2="16.0281" y2="32.0026" gradientUnits="userSpaceOnUse">
<stop stop-color="#FFE000"/>
<stop offset="0.4087" stop-color="#FFBD00"/>
<stop offset="0.7754" stop-color="#FFA500"/>
<stop offset="1" stop-color="#FF9C00"/>
</linearGradient>
<linearGradient id="paint2_linear" x1="40.3337" y1="35.6728" x2="3.92037" y2="72.0861" gradientUnits="userSpaceOnUse">
<stop stop-color="#FF3A44"/>
<stop offset="1" stop-color="#C31162"/>
</linearGradient>
<linearGradient id="paint3_linear" x1="12.2865" y1="0.281899" x2="28.5467" y2="16.5419" gradientUnits="userSpaceOnUse">
<stop stop-color="#32A071"/>
<stop offset="0.0685" stop-color="#2DA771"/>
<stop offset="0.4762" stop-color="#15CF74"/>
<stop offset="0.8009" stop-color="#06E775"/>
<stop offset="1" stop-color="#00F076"/>
</linearGradient>
</defs>
</svg>
